<svg xmlns="http://www.w3.org/2000/svg" viewBox="0 0 800 800" role="img" aria-label="Synthetic hoof X-ray demo with 5.2 degree P3 rotation">
  <defs>
    <radialGradient id="bg" cx="50%" cy="45%" r="60%"><stop offset="0" stop-color="#253142"/><stop offset="1" stop-color="#030508"/></radialGradient>
    <filter id="blur"><feGaussianBlur stdDeviation="2"/></filter>
  </defs>
  <rect width="800" height="800" fill="url(#bg)"/>
  <g opacity="0.28" filter="url(#blur)">
    <path d="M315 150 C260 280 250 490 320 650 C390 730 560 705 615 615 C680 500 655 305 545 170 C480 105 365 105 315 150Z" fill="#d8e2ef"/>
    <path d="M438 200 L486 645 L565 620 L514 210 Z" fill="#f2f7ff"/>
    <path d="M330 120 L330 650" stroke="#ecf3ff" stroke-width="18" stroke-linecap="round"/>
  </g>
  <g opacity="0.85">
    <line x1="320" y1="160" x2="320" y2="640" stroke="#39ff88" stroke-width="5" stroke-dasharray="18 12"/>
    <line x1="440" y1="200" x2="480" y2="640" stroke="#ff4757" stroke-width="7"/>
    <circle cx="320" cy="160" r="8" fill="#00f0ff"/>
    <circle cx="320" cy="640" r="8" fill="#ff4757"/>
    <circle cx="440" cy="200" r="8" fill="#2ed573"/>
    <circle cx="480" cy="640" r="8" fill="#ff4757"/>
  </g>
  <text x="34" y="60" fill="#e0e6ed" font-family="monospace" font-size="24">DEMO X-RAY · 5.2° ROTATION</text>
</svg>
